PathFileType	3	(X/Y/Z)	feet_movements_1__view1_aligned.trc
DataRate	CameraRate	NumFrames	NumMarkers	Units	OrigDataRate	OrigDataStartFrame	OrigNumFrames
100.0	100.0	7	19	mm	100.0	171	1840
Frame#	Time	pelvis			neck			head			hip_left			hip_right			knee_left			knee_right			ankle_left			ankle_right			heel_left			heel_right			toe_left			toe_right			shoulder_left			shoulder_right			elbow_left			elbow_right			wrist_left			wrist_right			
		X1	Y1	Z1	X2	Y2	Z2	X3	Y3	Z3	X4	Y4	Z4	X5	Y5	Z5	X6	Y6	Z6	X7	Y7	Z7	X8	Y8	Z8	X9	Y9	Z9	X10	Y10	Z10	X11	Y11	Z11	X12	Y12	Z12	X13	Y13	Z13	X14	Y14	Z14	X15	Y15	Z15	X16	Y16	Z16	X17	Y17	Z17	X18	Y18	Z18	X19	Y19	Z19	
171	1.70000	63.991169	950.477941	379.274618	118.856892	1518.388105	342.483825	144.292137	1662.589189	233.551067	-15.676967	954.803731	370.958221	143.659685	946.152137	387.590695	-90.983936	544.090435	274.287376	93.099531	520.760802	414.803192	-134.695141	160.890918	392.582568	15.852965	144.067612	535.957364	-132.597676	118.130163	433.842452	-0.219361	101.581219	576.354739	-149.686111	81.319222	210.234384	59.867545	62.788909	360.111540	-69.384454	1471.655057	367.494374	284.426484	1470.971842	413.238704	-284.673911	1254.301945	323.524345	531.554773	1283.231965	339.746136	-398.543505	1282.072818	47.046274	667.588000	1454.706877	159.259687
172	1.71000	64.005951	950.794664	380.547193	119.832589	1518.873570	343.568674	145.776979	1663.199103	234.840254	-15.725094	955.179372	372.301135	143.737297	946.409944	388.792992	-90.967585	544.219966	275.525099	92.579342	520.925816	416.086115	-134.878496	160.719152	392.998291	15.050267	144.097918	536.966266	-132.809579	117.854127	434.175911	-1.094045	101.586013	577.337017	-149.695021	81.462581	210.392991	59.142184	62.825070	361.059635	-68.908474	1473.105865	367.522091	286.037644	1470.578354	412.469234	-279.812432	1254.041427	320.421698	522.909298	1279.698811	335.254570	-381.767310	1284.394163	47.477779	648.114667	1450.246885	154.600522
173	1.72000	64.020732	951.111387	381.819767	120.808287	1519.359034	344.653524	147.261821	1663.809016	236.129440	-15.773221	955.555013	373.644048	143.814909	946.667751	389.995289	-90.951233	544.349497	276.762821	92.059153	521.090830	417.369037	-135.061852	160.547387	393.414013	14.247569	144.128223	537.975168	-133.021481	117.578090	434.509371	-1.968728	101.590807	578.319295	-149.703930	81.605940	210.551597	58.416823	62.861231	362.007730	-68.432494	1474.556673	367.549807	287.648803	1470.184865	411.699764	-274.950954	1253.780909	317.319052	514.263822	1276.165658	330.763003	-364.991115	1286.715508	47.909283	628.641333	1445.786893	149.941357
174	1.73000	64.035514	951.428109	383.092342	121.783984	1519.844498	345.738373	148.746664	1664.418930	237.418627	-15.821348	955.930654	374.986962	143.892522	946.925558	391.197586	-90.934882	544.479028	278.000543	91.538964	521.255845	418.651959	-135.245208	160.375622	393.829736	13.444872	144.158528	538.984070	-133.233383	117.302054	434.842831	-2.843412	101.595601	579.301574	-149.712840	81.749300	210.710204	57.691463	62.897392	362.955825	-67.956514	1476.007481	367.577524	289.259963	1469.791377	410.930294	-270.089475	1253.520391	314.216405	505.618347	1272.632504	326.271436	-348.214921	1289.036853	48.340787	609.168000	1441.326901	145.282192
175	1.74000	64.050296	951.744832	384.364916	122.759682	1520.329962	346.823223	150.231506	1665.028843	238.707813	-15.869475	956.306295	376.329875	143.970134	947.183366	392.399883	-90.918530	544.608558	279.238265	91.018775	521.420859	419.934882	-135.428563	160.203856	394.245458	12.642174	144.188834	539.992972	-133.445286	117.026017	435.176291	-3.718096	101.600395	580.283852	-149.721750	81.892659	210.868810	56.966102	62.933553	363.903919	-67.480534	1477.458289	367.605241	290.871122	1469.397888	410.160825	-265.227996	1253.259872	311.113758	496.972872	1269.099351	321.779869	-331.438726	1291.358199	48.772291	589.694666	1436.866909	140.623027
176	1.75000	64.065077	952.061555	385.637491	123.735379	1520.815426	347.908072	151.716348	1665.638757	239.997000	-15.917602	956.681937	377.672789	144.047746	947.441173	393.602181	-90.902179	544.738089	280.475987	90.498586	521.585874	421.217804	-135.611919	160.032091	394.661181	11.839476	144.219139	541.001875	-133.657188	116.749981	435.509750	-4.592779	101.605189	581.266130	-149.730660	82.036018	211.027417	56.240741	62.969714	364.852014	-67.004554	1478.909097	367.632957	292.482282	1469.004400	409.391355	-260.366517	1252.999354	308.011111	488.327397	1265.566197	317.288302	-314.662531	1293.679544	49.203795	570.221333	1432.406916	135.963862
177	1.76000	64.079859	952.378278	386.910065	124.711077	1521.300890	348.992921	153.201190	1666.248670	241.286187	-15.965729	957.057578	379.015702	144.125358	947.698980	394.804478	-90.885828	544.867620	281.713710	89.978398	521.750888	422.500726	-135.795274	159.860325	395.076904	11.036778	144.249444	542.010777	-133.869090	116.473945	435.843210	-5.467463	101.609983	582.248408	-149.739570	82.179377	211.186023	55.515381	63.005876	365.800109	-66.528574	1480.359905	367.660674	294.093441	1468.610912	408.621885	-255.505038	1252.738836	304.908465	479.681922	1262.033044	312.796736	-297.886337	1296.000889	49.635299	550.748000	1427.946924	131.304697
